<?xml version="1.0" standalone="no"?>
<!DOCTYPE svg PUBLIC "-//W3C//DTD SVG 20010904//EN"
 "http://www.w3.org/TR/2001/REC-SVG-20010904/DTD/svg10.dtd">
<svg version="1.0" xmlns="http://www.w3.org/2000/svg"
 width="512.000000pt" height="512.000000pt" viewBox="0 0 512.000000 512.000000"
 preserveAspectRatio="xMidYMid meet">
<metadata>
Created by potrace 1.11, written by Peter Selinger 2001-2013
</metadata>
<g transform="translate(0.000000,512.000000) scale(0.100000,-0.100000)"
fill="#000000" stroke="none">
<path d="M166 4930 c-64 -25 -119 -79 -145 -142 -21 -50 -21 -53 -21 -1713 0
-1840 -5 -1711 65 -1792 19 -23 57 -50 87 -64 l53 -23 788 -1 788 0 -6 -50
c-3 -27 -8 -61 -10 -75 -3 -14 -7 -47 -10 -75 -3 -27 -10 -86 -16 -130 -17
-132 -18 -139 -18 -161 -1 -17 -7 -21 -33 -22 -85 -1 -99 -3 -124 -25 -27 -23
-27 -24 -28 -170 l-1 -146 -163 0 c-90 0 -167 -3 -171 -5 -4 -3 -7 -40 -7 -83
l1 -78 1365 -3 1366 -2 -1 85 0 85 -30 0 c-16 1 -93 1 -170 0 l-140 -1 0 128
c1 70 -3 141 -8 156 -14 41 -50 61 -112 59 -41 0 -55 3 -60 16 -3 9 -13 71
-21 137 -17 142 -20 165 -34 269 -6 44 -8 82 -5 85 3 3 355 6 783 6 634 1 785
4 821 15 26 8 63 33 91 60 87 85 80 -76 78 1819 -3 1612 -4 1677 -22 1711 -30
58 -87 109 -143 130 -53 20 -80 20 -2396 20 -2287 -1 -2343 -1 -2391 -20z"/>
</g>
</svg>
